/* XPM */
static char *noun_747097_cc[] = {
/* columns rows colors chars-per-pixel */
"32 31 2 1 ",
"  c black",
". c None",
/* pixels */
"................................",
"................................",
"........        ................",
"......            ..............",
".....    ......    .............",
"....   ..........   ............",
"...   .....  .....   ...........",
"..   ......  ......  ...........",
"..  .....      ....   ..........",
"..  .....      .....  ..........",
".   .......  .......  ..........",
".   .......  .......  ..........",
".   ................  ..........",
".   ................  ..........",
"..  ................  ..........",
"..  .....      ....   ..........",
"..   ....      ....   ..........",
"...   ............     .........",
"....   ..........       ........",
"....    .......          .......",
"......                    ......",
".......                    .....",
".................           ....",
"..................           ...",
"...................           ..",
"....................          ..",
".....................         ..",
"......................       ...",
".......................     ....",
"........................   .....",
"................................"
};
