/* XPM */
static char *noun_627172_cc[] = {
/* columns rows colors chars-per-pixel */
"32 35 2 1 ",
"  c black",
". c None",
/* pixels */
"..........................   ...",
"........................   ..  .",
".......................  .....  ",
"....................... ..   .. ",
"...................... .. .. .. ",
".....................  .. .. .. ",
"..................... ....   .  ",
"....................  ........ .",
"...........   .....  .......  ..",
".......... ...     ........  ...",
".........  ..............  .....",
"........ ..  ...........  ......",
"....... ....  ..... ... ........",
"......  .....  .. ..... ........",
"......   .....  .. ... .........",
"..... ..  .....  .. .. .........",
".... ....  .....  .... .........",
"... ... ..  .....  ...  ........",
".. ...  ..   .....  ... ........",
". ...  ..  .  .....  ..  .......",
"  ..  ..  ...  .....  .  .......",
" ..  ..  ... .  .....   ........",
" .  ..  ...  ..  ....  .........",
"    .. ... ...    ..  ..........",
".   . ...  ..  ..    ...........",
"...   .. ........   ............",
"...  ......  ... ...............",
"....  .         ................",
".....   ...... .................",
"...... ...... ..................",
"....... .... ...................",
"........ ..  ...................",
".........   ....................",
"..........  ....................",
"........... ...................."
};
