/* XPM */
static char *favicon_32x32[] = {
/* columns rows colors chars-per-pixel */
"32 32 3 1 ",
"  c #070707",
". c gray3",
"X c None",
/* pixels */
"XXXXXXXXXXXXXXXXXXXXXXXXXXXXXXXX",
"XXXXXXXXXXXXXXXXXXXXXXXXXXXXXXXX",
"XXXXXXXXXXXXXXXXXXXXXXXXXXXXXXXX",
"XXXXXXXXXXXXXXXXXXXXXXXXXXXXXXXX",
"XXXXXXXXXXXXXXXXXXXXXXXXXXXXXXXX",
"XXXXXXXXXXX.... .XXX     X. ....",
"XXXXXXXXXX.  ...XXXX .. XX. ....",
"XXXXXXXXX.... .XXXXX...XXX..  . ",
"XXXXXXXX......XXXXXX. XXXX....  ",
"XXXXXXX.   ..XXXXXXX.XXXXX. ....",
"XXXXXX..  ..XXXXXXXXXXXXXX..  . ",
"XXXXX .....XXXXXXXXXXXXXX... ..X",
"XXXX ..  .XXXXXXXXXXXXXX...  .XX",
"XXX. . ..XXXXXXXXXXXXXX.  .. XXX",
"XX . ...XXXXXXXXXXXXXX.     XXXX",
"X. ....XXXXXXXXXXXXXX.. .. XXXXX",
".......XXXXXXXXXXXXX..  ..XXXXXX",
"  .  .... ..... ..XX...  .XXXXX.",
" ...........  . ..XX..... XXXX..",
"............     .XX.. ...XXX...",
"........ . ..   ..XX.  ...XX..  ",
"XXXXXXXXXXX... ...XX...  .X...  ",
"XXXXXXXXXXXX .....XXXXXXXXXXXXXX",
"XXXXXXXXXXXX......XXXXXXXXXXXXXX",
"XXXXXXXXXXXX.. ...XXXXXXXXXXXXXX",
"XXXXXXXXXXXX... ..XXXXXXXXXXXXXX",
"XXXXXXXXXXXX......XXXXXXXXXXXXXX",
"XXXXXXXXXXXXXXXXXXXXXXXXXXXXXXXX",
"XXXXXXXXXXXXXXXXXXXXXXXXXXXXXXXX",
"XXXXXXXXXXXXXXXXXXXXXXXXXXXXXXXX",
"XXXXXXXXXXXXXXXXXXXXXXXXXXXXXXXX",
"XXXXXXXXXXXXXXXXXXXXXXXXXXXXXXXX"
};
