/* XPM */
static char *noun_789873_cc[] = {
/* columns rows colors chars-per-pixel */
"32 32 2 1 ",
"  c black",
". c None",
/* pixels */
"................................",
"...............  ...............",
"..............    ..............",
".............      .............",
".............      .............",
"............        ............",
"...........          ...........",
"..............    ..............",
"..............    ..............",
"..............    ..............",
"..............   ...............",
"...... .................. ......",
".....  ..................  .....",
"...    ..................    ...",
"..         ..........          .",
".          ..........          .",
".          ..........          .",
"..        ............        ..",
"...    ..................    ...",
".....  ..................  .....",
"...... .................. ......",
"..............    ..............",
"..............    ..............",
"..............    ..............",
"..............    ..............",
"...........          ...........",
"............        ............",
"............        ............",
".............      .............",
"..............    ..............",
"...............  ...............",
"................................"
};
